# xmcd
#
# Track frame offsets:
#	150
#	14835
#	30420
#	42345
#	58200
#	70835
#	85655
#	101100
#	115890
#	129935
#	143540
#	157135
#
# Disc length: 2314 seconds
# Revision: 1
# Processed by: cddbd v1.5.2PL0 Copyright (c) Steve Scherf et al.
# Submitted via: dBpowerAMP V12.0
#
DISCID=a209080c
DTITLE=Helen Grayco - After Midnight [dBP-LITE-1-FLAC@]
DYEAR=1957
DGENRE=Jazz
TTITLE0=Take Me In Your Arms
TTITLE1=Mood Indigo
TTITLE2=Glad To Be Unhappy
TTITLE3=Every Time We Say Goodbye
TTITLE4=While We're Young
TTITLE5=Black Coffee
TTITLE6=You're My Thrill
TTITLE7=Good Morning Heartache
TTITLE8=We'll Be Together Again
TTITLE9=Last Night When We Were Young
TTITLE10=Midnight Sun
TTITLE11=You Don't Know What Love Is
EXTD=
EXTT0=
EXTT1=
EXTT2=
EXTT3=
EXTT4=
EXTT5=
EXTT6=
EXTT7=
EXTT8=
EXTT9=
EXTT10=
EXTT11=
PLAYORDER=
